<?xml version="1.0" encoding="utf-8"?>
<!-- Generator: Adobe Illustrator 24.2.1, SVG Export Plug-In . SVG Version: 6.00 Build 0)  -->
<svg version="1.1" id="Layer_1" xmlns="http://www.w3.org/2000/svg" xmlns:xlink="http://www.w3.org/1999/xlink" x="0px" y="0px"
	 viewBox="0 0 512 512" style="enable-background:new 0 0 512 512;" xml:space="preserve">
<style type="text/css">
	.st0{fill:#F0F0F0;}
	.st1{fill:#A2001D;}
	.st2{fill:#FFDA44;}
	.st3{fill:#D80027;}
</style>
<polygon class="st0" points="167.6,167.1 167.6,345.2 345.4,345.2 168,167.1 "/>
<path d="M345.4,345.2H167.6v151c0,0,0,0,0,0l0,0c0,0,0,0,0.1,0c1.4,0.5,2.7,1,4.1,1.5c0.5,0.2,0.9,0.3,1.4,0.5
	c1.3,0.4,2.6,0.9,3.8,1.3c0.6,0.2,1.2,0.4,1.8,0.6c1.2,0.4,2.5,0.8,3.7,1.1c0.7,0.2,1.3,0.4,2,0.6c1.2,0.4,2.4,0.7,3.6,1
	c0.7,0.2,1.4,0.4,2.1,0.6c1.2,0.3,2.4,0.6,3.6,0.9c0.7,0.2,1.4,0.3,2.1,0.5c1.2,0.3,2.4,0.6,3.6,0.9c0.7,0.2,1.3,0.3,2,0.4
	c2.3,0.5,4.6,1,7,1.4c0.8,0.2,1.6,0.3,2.4,0.5c1,0.2,2,0.3,3,0.5c1,0.2,2,0.3,3,0.5c1,0.2,1.9,0.3,2.9,0.4c1.1,0.2,2.1,0.3,3.2,0.4
	c0.9,0.1,1.9,0.2,2.9,0.4c1.1,0.1,2.2,0.3,3.3,0.4c0.9,0.1,1.9,0.2,2.8,0.3c1.1,0.1,2.3,0.2,3.4,0.3c0.9,0.1,1.8,0.1,2.7,0.2
	c1.2,0.1,2.4,0.2,3.7,0.2c0.8,0,1.7,0.1,2.5,0.1c1.4,0.1,2.7,0.1,4.1,0.2c0.7,0,1.4,0.1,2.1,0.1c2.1,0,4.2,0.1,6.3,0.1
	c2,0,4,0,6-0.1c0.6,0,1.2,0,1.8-0.1c1.4,0,2.8-0.1,4.3-0.2c0.7,0,1.3-0.1,2-0.1c1.5-0.1,3-0.2,4.5-0.3c0.5,0,1-0.1,1.4-0.1
	c2-0.2,3.9-0.3,5.9-0.5c0.5,0,0.9-0.1,1.4-0.2c1.5-0.2,3-0.3,4.5-0.5c0.7-0.1,1.3-0.2,2-0.3c1.4-0.2,2.7-0.4,4.1-0.6
	c0.6-0.1,1.2-0.2,1.8-0.3c1.8-0.3,3.6-0.6,5.5-0.9c0.1,0,0.2,0,0.3,0c1.9-0.3,3.8-0.7,5.6-1.1c0.6-0.1,1.2-0.3,1.8-0.4
	c1.3-0.3,2.6-0.6,3.9-0.9c0.7-0.1,1.3-0.3,2-0.5c1.4-0.3,2.7-0.7,4.1-1c0.5-0.1,1-0.3,1.5-0.4c1.8-0.5,3.6-1,5.4-1.5
	c0.5-0.1,1-0.3,1.5-0.4c1.3-0.4,2.7-0.8,4-1.2c0.7-0.2,1.3-0.4,2-0.6c1.2-0.4,2.4-0.8,3.6-1.2c0.6-0.2,1.3-0.4,1.9-0.6
	c1.5-0.5,3-1,4.5-1.6c0.4-0.1,0.7-0.3,1.1-0.4c1.6-0.6,3.3-1.2,4.9-1.9c0.6-0.3,1.3-0.5,1.9-0.8c1.1-0.4,2.2-0.9,3.3-1.4
	c0.7-0.3,1.4-0.6,2.1-0.9c1.1-0.5,2.3-1,3.4-1.5c0.6-0.3,1.2-0.5,1.8-0.8c1.6-0.7,3.2-1.5,4.8-2.3c0.6-0.3,1.2-0.6,1.8-0.9
	c1.1-0.5,2.2-1.1,3.3-1.6c0.7-0.4,1.4-0.7,2.1-1.1c1-0.5,1.9-1,2.9-1.5c0.7-0.4,1.4-0.7,2.1-1.1c1.1-0.6,2.2-1.2,3.3-1.9
	c0.8-0.5,1.6-0.9,2.4-1.4c1.2-0.7,2.4-1.4,3.6-2.1c0.7-0.4,1.4-0.9,2.1-1.3c0.9-0.5,1.7-1.1,2.6-1.6c0.7-0.5,1.5-0.9,2.2-1.4
	c0.8-0.5,1.7-1.1,2.5-1.7c0.7-0.5,1.4-0.9,2.1-1.4c1.4-0.9,2.8-1.9,4.1-2.9c0.7-0.5,1.4-1,2.1-1.5c0.8-0.6,1.6-1.1,2.3-1.7
	c0.8-0.6,1.5-1.1,2.3-1.7c0.7-0.5,1.4-1.1,2.1-1.6c0.8-0.6,1.5-1.2,2.3-1.8c0.7-0.6,1.4-1.1,2.1-1.7c1.3-1,2.5-2.1,3.8-3.1
	c0.7-0.6,1.4-1.1,2-1.7c0.8-0.7,1.5-1.3,2.3-2c0.6-0.5,1.2-1.1,1.8-1.6c0.8-0.7,1.5-1.4,2.3-2.1c0.6-0.5,1.1-1.1,1.7-1.6
	c0.8-0.7,1.5-1.4,2.3-2.2c0.3-0.3,0.7-0.7,1-1c0.8-0.8,1.6-1.6,2.4-2.4L345.4,345.2z"/>
<path class="st1" d="M145.4,345.2h22.3V167.1h-22.3l2.9-19.8L76,74.8c-1,1-2.1,2.1-3.1,3.1c-0.3,0.3-0.7,0.7-1,1
	c-0.7,0.8-1.4,1.5-2.2,2.3c-0.5,0.6-1.1,1.1-1.6,1.7c-0.7,0.8-1.4,1.5-2.1,2.3c-0.5,0.6-1.1,1.2-1.6,1.8c-0.7,0.8-1.3,1.5-2,2.3
	c-0.6,0.7-1.1,1.4-1.7,2c-1.1,1.3-2.1,2.5-3.2,3.8c-0.6,0.7-1.1,1.4-1.7,2.1c-0.6,0.7-1.2,1.5-1.8,2.3c-0.5,0.7-1.1,1.4-1.6,2.1
	c-0.6,0.8-1.1,1.5-1.7,2.3c-0.6,0.8-1.1,1.5-1.7,2.3c-0.5,0.7-1,1.4-1.5,2.1c-1,1.4-1.9,2.7-2.9,4.1c-0.5,0.7-0.9,1.4-1.4,2.1
	c-0.6,0.8-1.1,1.7-1.7,2.5c-0.5,0.7-0.9,1.5-1.4,2.2c-0.5,0.9-1.1,1.7-1.6,2.6c-0.4,0.7-0.9,1.4-1.3,2.1c-0.7,1.2-1.4,2.4-2.1,3.6
	c-0.5,0.8-0.9,1.6-1.4,2.5c-0.6,1.1-1.2,2.2-1.8,3.3c-0.4,0.7-0.8,1.4-1.1,2.1c-0.5,1-1,1.9-1.5,2.9c-0.4,0.7-0.7,1.4-1.1,2.1
	c-0.5,1.1-1.1,2.2-1.6,3.3c-0.3,0.6-0.6,1.2-0.9,1.8c-0.8,1.6-1.5,3.2-2.3,4.8c-0.3,0.6-0.5,1.2-0.8,1.8c-0.5,1.1-1,2.2-1.5,3.4
	c-0.3,0.7-0.6,1.4-0.9,2.1c-0.5,1.1-0.9,2.2-1.4,3.3c-0.3,0.6-0.5,1.3-0.8,1.9c-0.6,1.6-1.3,3.2-1.9,4.9c-0.1,0.4-0.3,0.7-0.4,1.1
	c-0.5,1.5-1.1,3-1.6,4.5c-0.2,0.6-0.4,1.3-0.6,1.9c-0.4,1.2-0.8,2.4-1.2,3.6c-0.2,0.7-0.4,1.3-0.6,2c-0.4,1.3-0.8,2.7-1.2,4
	c-0.1,0.5-0.3,1-0.4,1.5c-0.5,1.8-1,3.6-1.5,5.4c-0.1,0.5-0.3,1-0.4,1.5c-0.3,1.4-0.7,2.7-1,4.1c-0.2,0.7-0.3,1.3-0.5,2
	c-0.3,1.3-0.6,2.6-0.9,3.9c-0.1,0.6-0.3,1.2-0.4,1.8c-0.4,1.9-0.7,3.8-1.1,5.6c0,0.1,0,0.2,0,0.3c-0.3,1.8-0.6,3.6-0.9,5.5
	c-0.1,0.6-0.2,1.2-0.3,1.8c-0.2,1.4-0.4,2.7-0.6,4.1c-0.1,0.7-0.2,1.3-0.3,2c-0.2,1.5-0.4,3-0.5,4.5c0,0.5-0.1,0.9-0.2,1.4
	c-0.2,1.9-0.4,3.9-0.5,5.9c0,0.5-0.1,1-0.1,1.4c-0.1,1.5-0.2,3-0.3,4.5c0,0.7-0.1,1.3-0.1,2c-0.1,1.4-0.1,2.8-0.2,4.3
	c0,0.6,0,1.2-0.1,1.8c0,2-0.1,4-0.1,6s0,4,0.1,6c0,0.6,0,1.2,0.1,1.8c0,1.4,0.1,2.8,0.2,4.3c0,0.7,0.1,1.3,0.1,2
	c0.1,1.5,0.2,3,0.3,4.5c0,0.5,0.1,1,0.1,1.4c0.2,2,0.3,3.9,0.5,5.9c0,0.5,0.1,0.9,0.2,1.4c0.2,1.5,0.3,3,0.5,4.5
	c0.1,0.7,0.2,1.3,0.3,2c0.2,1.4,0.4,2.7,0.6,4.1c0.1,0.6,0.2,1.2,0.3,1.8c0.3,1.8,0.6,3.6,0.9,5.5c0,0.1,0,0.2,0,0.3
	c0.3,1.9,0.7,3.8,1.1,5.6c0.1,0.6,0.3,1.2,0.4,1.8c0.3,1.3,0.6,2.6,0.9,3.9c0.1,0.7,0.3,1.3,0.5,2c0.3,1.4,0.7,2.7,1,4.1
	c0.1,0.5,0.3,1,0.4,1.5c0.5,1.8,1,3.6,1.5,5.4c0.1,0.5,0.3,1,0.4,1.5c0.4,1.3,0.8,2.7,1.2,4c0.2,0.7,0.4,1.3,0.6,2
	c0.4,1.2,0.8,2.4,1.2,3.6c0.2,0.6,0.4,1.3,0.6,1.9c0.5,1.5,1,3,1.6,4.5c0.1,0.4,0.3,0.7,0.4,1.1c0.6,1.6,1.2,3.3,1.9,4.9
	c0.3,0.6,0.5,1.3,0.8,1.9c0.4,1.1,0.9,2.2,1.4,3.3c0.3,0.7,0.6,1.4,0.9,2.1c0.5,1.1,1,2.3,1.5,3.4c0.3,0.6,0.5,1.2,0.8,1.8
	c0.7,1.6,1.5,3.2,2.3,4.8c0.3,0.6,0.6,1.2,0.9,1.8c0.5,1.1,1.1,2.2,1.6,3.2c0.4,0.7,0.7,1.4,1.1,2.1c0.5,1,1,1.9,1.5,2.9
	c0.4,0.7,0.7,1.4,1.1,2.1c0.6,1.1,1.2,2.2,1.8,3.3c0.5,0.8,0.9,1.6,1.4,2.5c0.7,1.2,1.4,2.4,2.1,3.6c0.4,0.7,0.9,1.4,1.3,2.1
	c0.5,0.9,1.1,1.7,1.6,2.6c0.5,0.7,0.9,1.5,1.4,2.2c0.5,0.8,1.1,1.7,1.7,2.5c0.5,0.7,0.9,1.4,1.4,2.1c0.9,1.4,1.9,2.8,2.9,4.1
	c0.5,0.7,1,1.4,1.5,2.1c0.6,0.8,1.1,1.6,1.7,2.3c0.6,0.8,1.1,1.5,1.7,2.3c0.5,0.7,1.1,1.4,1.6,2.1c0.6,0.8,1.2,1.5,1.8,2.3
	c0.6,0.7,1.1,1.4,1.7,2.1c1,1.3,2.1,2.6,3.2,3.8c0.6,0.7,1.1,1.4,1.7,2c0.7,0.8,1.3,1.5,2,2.3c0.5,0.6,1.1,1.2,1.6,1.8
	c0.7,0.8,1.4,1.5,2.1,2.3c0.5,0.6,1,1.1,1.6,1.7c0.7,0.8,1.4,1.5,2.2,2.3c0.3,0.3,0.7,0.7,1,1c1.5,1.6,3.1,3.1,4.7,4.7
	c0.5,0.5,1,1,1.5,1.5c0.8,0.8,1.6,1.5,2.4,2.3c0.5,0.5,1,0.9,1.5,1.4c0.8,0.8,1.6,1.5,2.5,2.3c0.4,0.4,0.9,0.8,1.3,1.2
	c1.8,1.6,3.6,3.1,5.4,4.7c0.3,0.2,0.5,0.5,0.8,0.7c0.9,0.8,1.8,1.5,2.7,2.2c0.5,0.4,1,0.8,1.4,1.2c0.9,0.7,1.8,1.5,2.8,2.2
	c0.5,0.4,0.9,0.7,1.4,1.1c3.2,2.5,6.5,4.8,9.8,7.1c0.4,0.3,0.8,0.5,1.2,0.8c1,0.7,2,1.4,3,2c0.5,0.3,0.9,0.6,1.4,0.9
	c1,0.7,2.1,1.3,3.1,2c0.3,0.2,0.7,0.4,1,0.6c3.5,2.2,7.1,4.4,10.8,6.4c0.4,0.2,0.9,0.5,1.3,0.7c1.1,0.6,2.2,1.2,3.3,1.8
	c0.4,0.2,0.9,0.5,1.3,0.7c3.7,2,7.5,3.8,11.3,5.6c0.4,0.2,0.7,0.3,1.1,0.5c1.2,0.5,2.3,1.1,3.5,1.6c0.5,0.2,0.9,0.4,1.4,0.6
	c1.2,0.5,2.4,1,3.5,1.5c0.3,0.1,0.7,0.3,1,0.4c2.7,1.1,5.5,2.2,8.3,3.2L145.4,345.2z"/>
<polygon class="st1" points="167.6,496.3 167.6,496.3 167.6,345.2 145.4,345.2 "/>
<polygon class="st1" points="148.3,147.4 145.4,167.1 167.6,167.1 167.6,166.8 "/>
<path class="st2" d="M343.1,345.2h153.1c10.3-27.7,15.9-57.7,15.9-89c0-31.3-5.6-61.3-15.9-89H167.5L343.1,345.2z"/>
<path class="st3" d="M256.1,144.9l240.1,22.3c-36.2-97.5-130-167-240.1-167c-70.3,0-133.9,28.3-180.2,74.1l78.8,80L256.1,144.9z"/>
<polygon class="st3" points="154.8,154.3 167.5,167.1 496.2,167.1 256.1,144.9 "/>
<path class="st3" d="M435.4,438.8c26.6-26.1,47.5-58,60.8-93.6l-140.3,13L435.4,438.8z"/>
<polygon class="st3" points="355.9,358.2 496.2,345.2 343.1,345.2 "/>
</svg>
