<?xml version="1.0" encoding="utf-8"?>
<!-- Generator: Adobe Illustrator 25.2.0, SVG Export Plug-In . SVG Version: 6.00 Build 0)  -->
<svg version="1.1" id="Layer_1" xmlns="http://www.w3.org/2000/svg" xmlns:xlink="http://www.w3.org/1999/xlink" x="0px" y="0px"
	 viewBox="0 0 239 238" style="enable-background:new 0 0 239 238;" xml:space="preserve">
<style type="text/css">
	.st0{fill:#E0E0E0;}
	.st1{enable-background:new    ;}
	.st2{fill:none;}
</style>
<path class="st0" d="M80.4,1.6h77.3c44.7,0,80.9,36.2,80.9,80.9v73c0,44.7-36.2,80.9-80.9,80.9H80.4c-44.7,0-80.9-36.2-80.9-80.9
	v-73C-0.5,37.8,35.7,1.6,80.4,1.6z"/>
<g class="st1">
	<path d="M173,97.4v17.2c0,27.2-13.5,42.9-36.3,42.9c-14.4,0-24.3-6.7-27.6-18.6h-1.8v50H81.5V56.2h25.4v17.2h1.9
		c3.5-12,13.4-18.7,27.9-18.7C159.5,54.6,173,70.3,173,97.4z M106.6,98.2v16.5c0,13.7,7.8,22,20.6,22c12.7,0,20.6-8.4,20.6-22V98.2
		c0-13.6-7.9-22-20.6-22C114.4,76.1,106.6,84.4,106.6,98.2z"/>
</g>
<rect x="-143.7" y="-39.3" class="st2" width="331.6" height="231.6"/>
</svg>
